<?xml version="1.0" encoding="UTF-8" standalone="no"?>
<!-- Created with Inkscape (http://www.inkscape.org/) -->

<svg
      xmlns="http://www.w3.org/2000/svg"
      width="188.976"
      height="50mm"
      version="1.1"
      viewBox="0 0 50 50"
    >
      <defs>
        <clipPath id="clipPath2010" clipPathUnits="userSpaceOnUse">
          <!-- nothing -->
          <path
            fill="#00f"
            fillRule="evenodd"
            strokeWidth="0.258"
            d="M194.225 6.473H242.887V55.135H194.225z"
          ></path>
        </clipPath>
      </defs>
      <g transform="translate(-5.154 -38.613)">
        <g
          fillOpacity="1"
          clipPath="url(#clipPath2010)"
          transform="translate(-194.41 31.963) scale(1.02749)"
        >
          <!-- brightest inside -->
          <path
            fill="#908E94"
            fillRule="evenodd"
            strokeWidth="0.318"
            d="M194.367 -0.226H243.029V59.774H194.367z"
            display="inline"
          ></path>
          <!-- right side -->
            <!-- fill="#fff" -->
          <path
            fill="#FFDBA7"
            strokeWidth="0.174"
            d="M196.667 59.101c0-.096-.304-.174-.676-.174-1.06 0-1.838-.193-1.562-.387.159-.111.17-.188.038-.243-.135-.056-.148-.33-.041-.902.1-.536.092-.841-.024-.88-.097-.032-.177-.35-.177-.704v-.644l1.352-.21c.743-.115 2.626-.296 4.184-.401 2.755-.187 2.845-.182 3.294.17.498.393.432.479-.135.175-.422-.225-.624-.087-.353.24.243.292-.19.984-.634 1.017-.483.036 1.213.3 2.016.314 1.19.02.862.366-.349.368-.6 0-1.208.008-1.352.016-.144.009-1.045-.037-2.002-.101-2.206-.148-3.292-.002-3.895.522-.378.329-.433.467-.282.713.288.47.519.465.739-.018.284-.625.882-.583 1.132.079.179.474.264.518.988.504.435-.008 1.192.042 1.682.111.959.136 1.638-.084 1.638-.53 0-.328.086-.322.647.046.355.232.924.313 2.48.353 1.11.028 2.215.07 2.455.09.368.034.443-.041.483-.483.043-.48-.028-.555-.872-.91-.506-.213-1.273-.415-1.704-.45l-.785-.062.924-.03c.56-.018 1.136.079 1.46.247.39.201.779.247 1.43.166.493-.06 1.209-.123 1.593-.137 1.061-.04 6.01.236 6.815.381.39.07.861.075 1.046.01.37-.129 8.367.035 8.504.175.047.048.11.44.142.872l.056.785-2.675.057c-1.878.04-2.64 0-2.56-.131.064-.104.034-.188-.068-.188a.182.182 0 00-.185.179c0 .237-10.109.218-10.395-.02-.134-.11-.471-.108-.966.006-.948.219-2.995.239-2.865.028.173-.28-.315-.326-1.471-.139-1.238.2-4.13.222-6.933.054-1.145-.068-1.788-.044-1.788.067a.175.175 0 01-.35 0zm19.535-.92c0-.346-.022-.353-.283-.093-.155.155-.228.37-.162.476.176.284.445.053.445-.382zm-6.28.223c0-.096-.073-.175-.163-.175-.09 0-.213.079-.272.175-.06.096.014.174.164.174s.272-.078.272-.174zm21.628-1.014c0-1.248-.073-1.976-.218-2.154-.185-.228-.48-.247-1.962-.123-1.656.138-3.383.188-4.535.132a7.51 7.51 0 00-1.22.08l-.698.108.61-.18c.336-.1.962-.256 1.391-.349.958-.205 1.207-.44 1.34-1.262.234-1.436-.619-2.215-2.423-2.215-1.255 0-1.419-.077-1.168-.546.117-.217.367-.326.75-.326.714 0 .847-.124.61-.567-.16-.3-.3-.33-1.04-.232-.689.091-.855.063-.855-.144 0-.142.078-.306.174-.365.096-.06.175-.561.175-1.115 0-.916.033-1.005.373-.992.432.016.584-.486.25-.821-.695-.695-.66-1.317.063-1.088.25.08.348.012.39-.264.04-.255.327-.483.93-.738 2.462-1.04 5.474-3.984 9.274-9.066.914-1.224 1.731-2.224 1.815-2.224.28 0 .88-1.415.89-2.096.01-.715-.57-1.742-.984-1.742-.304 0-.428-.35-.321-.91.1-.52-.446-1.183-.975-1.183-.25 0-.43.284-.741 1.166-.227.641-.437 1.033-.468.872-.09-.46-.59-.365-.519.1.033.217.164.37.295.341.17-.037.203.073.12.406-.105.415-.078.446.284.332.87-.272.926-.28.617-.081-.188.12-.305.414-.305.765 0 .504-.406 1.178-.819 1.358-.139.06-.65.645-2.038 2.329-.395.48-1.29 1.435-1.988 2.123-1.345 1.327-1.406 1.729-.179 1.175.548-.247 1.042-.777 2.254-2.418 2.14-2.894 2.438-3.246 3.499-4.122 1.1-.909.805-.46-.584.887-1.217 1.181-2.83 3.33-4.226 5.63-.195.322-.424.474-.68.453-.914-.077-1.17.015-1.17.423 0 .48-.302.82-.73.82-.194 0-.412.242-.58.642-.382.915-1.256 1.664-1.678 1.438-.244-.13-.325-.114-.325.067 0 .132-.166.39-.368.573-.362.326-.362.321.017-.322.419-.711.52-.764.845-.44.17.171.235.14.311-.152.053-.203.286-.455.518-.56.231-.106.42-.34.42-.519 0-.18.088-.576.194-.881.155-.444.242-.515.434-.356.132.11.36.154.504.099.46-.177.296-.974-.367-1.784-.73-.89-1.272-.994-1.974-.379-.36.315-.346.28.065-.174.32-.353.678-.566.95-.566.342 0 .393-.047.23-.21-.465-.465-.209-.826 1.142-1.604 2.39-1.378 3.37-2.028 3.476-2.304.145-.378-.265-.72-1.034-.86-.517-.094-.654-.065-.654.142 0 .29-.554.702-1.22.909a3.94 3.94 0 00-.9.461c-.746.525-.96.375-.356-.25.402-.414.505-.628.368-.765-.137-.136-.01-.329.46-.689 1.643-1.263 2.41-1.909 2.465-2.076.033-.1-.045-.325-.174-.501-.221-.303-.28-.284-1.09.334-.84.64-2.75 1.657-3.113 1.657-.197 0 .438-.383 2-1.205.534-.281 1.083-.65 1.222-.82.228-.282-1.219.443-2.186 1.095a1.57 1.57 0 01-.785.22l-.441-.011.392-.19c.486-.234.487-.317.015-.918-.25-.319-.324-.554-.218-.696.618-.832 2.265-2.708 2.377-2.708.076 0 .137-.235.137-.523 0-.604.435-.728.61-.174.076.235.265.349.581.349.28 0 .557.14.688.348.12.192.33.35.466.35.33 0 .426.906.121 1.145-.197.155-.176.303.125.872.538 1.02 1.032 1.311 1.81 1.068.86-.27 1.017-.978.397-1.792-.24-.315-.437-.73-.437-.92 0-.471-.831-1.108-1.266-.97-.239.076-.517-.065-.944-.477-.555-.535-.596-.645-.496-1.315.096-.65.059-.763-.332-1.02-.574-.376-.804-.28-1.04.438-.273.826-.72.953-.556.158.327-1.584.316-2.029-.06-2.404-.2-.2-.559-.365-.796-.365-.283 0-.535-.166-.73-.48-.619-.996-.968-1.264-1.645-1.264-.547 0-.747.112-1.234.694-.32.381-1.287 1.206-2.15 1.833l-1.568 1.138-.197-.568c-.242-.702-.204-.773.501-.925 1.672-.36 1.857-.867.982-2.696-.916-1.915-1.211-2.916-1.014-3.436.21-.554-.07-2.096-.556-3.052-.228-.449-.501-.697-.895-.814a37.204 37.204 0 01-1.608-.546c-.628-.229-1.235-.339-1.533-.28-.472.095-1.177-.18-1.177-.46 0-.073.145-.132.322-.132.551 0 1.437-.54 1.604-.978.087-.23.236-.418.331-.418.095 0 .448-.241.784-.536.42-.369.718-.503.95-.43.222.07.42-.004.573-.213.37-.51 1.056-.914 1.552-.914.6 0 1.035-.501 1.035-1.19 0-.5.052-.554.523-.554.288 0 .524-.07.524-.154 0-.085.157-.195.348-.245.285-.075.35-.238.35-.893 0-.738-.035-.801-.437-.801-.32 0-.436-.093-.436-.349 0-.194.116-.349.262-.349.189 0 .261-.193.261-.697 0-.384-.078-.698-.174-.698a.175.175 0 01-.174-.174c0-.115 3.575-.175 10.377-.175h10.378v60H231.55zm-7.98-7.997a.673.673 0 00-.435 0c-.12.048-.022.088.218.088s.338-.04.218-.088zm3.794-12.094a.175.175 0 00-.174-.174.175.175 0 00-.174.174c0 .096.078.175.174.175a.175.175 0 00.174-.175zm2.617-10.912c0-.374-.425-.774-.822-.774h-.46l.41.436c.37.394.872.588.872.338zm-1.922-3.793c.001-.077-.075-.092-.171-.033-.096.06-.174.24-.172.403.002.254.026.258.172.033.093-.144.17-.325.171-.403zm-23.158 32.89c-.356-.216-.568-.392-.472-.392.095 0 .394.145.662.322.269.177.661.29.872.25.211-.04.577-.002.814.086.356.132.287.157-.4.142a3.066 3.066 0 01-1.476-.409zm3.06.188a.673.673 0 01.436 0c.12.048.021.088-.218.088-.24 0-.338-.04-.219-.088zm10.73-.18c.17-.044.405-.041.523.007.118.047-.021.083-.309.08-.288-.004-.384-.043-.215-.087zm3.313 0c.17-.044.406-.041.524.007.118.047-.021.083-.309.08-.288-.004-.384-.043-.215-.087zm-11.994-.187c.096-.07.174-.285.174-.477 0-.304.136-.356 1.047-.406.575-.031 1.695-.004 2.488.06 1.2.097 1.473.175 1.63.47.152.283.143.325-.043.21-.431-.266-3.66-.245-4.186.027-.49.253-1.43.351-1.11.116zm10.727-.04c-.604-.128-.605-.13-.088-.15.288-.01.641.056.785.15.29.187.194.187-.697 0zm-4.275-1.92c-.07-.113-.02-.18.115-.157.747.127 1.578-.53.976-.773-.141-.058-.12-.093.06-.102.152-.008.364.178.471.413.212.464.2.473-.95.704-.334.067-.598.033-.672-.086zm-1.544-1.177c-.06-.36-.109-.972-.11-1.36 0-.389-.087-.792-.192-.897-.138-.138-.136-.293.006-.558.32-.598.587-.448.455.256-.115.613.134 1.214.428 1.032.075-.046.183.036.24.183.07.185.01.252-.196.217-.249-.042-.297.099-.297.866 0 1.065-.178 1.205-.334.261zm6.952-1.264c-.059-.096.02-.175.175-.175s.233.079.174.175c-.06.096-.138.174-.174.174-.037 0-.115-.078-.175-.174zm-5.719-.524c-.05-.191-.02-.348.067-.348.087 0 .158.157.158.348 0 .192-.03.35-.067.35-.037 0-.108-.158-.158-.35zm-11.644-1.422a102.57 102.57 0 00-.452-1.63c-.416-1.478-.617-3.952-.342-4.226.058-.058.105-.237.105-.398 0-.161.123-.54.274-.842.247-.496.307-1 .242-2.034-.013-.192.064-.685.17-1.097.133-.521.136-.85.01-1.086-.163-.305-.136-.678.117-1.61.046-.168.215-.307.376-.308.247-.003.253-.029.04-.163-.218-.139-.22-.224-.01-.614.194-.365.201-.567.035-1.027-.235-.65-.275-1.62-.072-1.745.075-.046.264.14.42.413.244.423.249.51.035.593-.26.1-.178.893.127 1.226.086.093.033.293-.123.465-.215.237-.232.38-.079.665.107.2.26.364.342.364.259 0 .547-.47.448-.73-.054-.14-.02-.443.073-.677.155-.39.17-.37.18.236.006.363-.124.866-.289 1.118-.165.252-.288.7-.273.997.015.296-.013.4-.062.23-.118-.408-.411-.21-.411.28 0 .213-.123.562-.274.777-.194.277-.285.883-.314 2.09-.028 1.16-.13 1.866-.32 2.222-.377.7-.733 2.394-.61 2.901.373 1.55.51 2 .656 2.146.09.091.164.388.164.66 0 .712.36.765 2.16.315 1.484-.371 2.324-.73 5.427-2.325.672-.344 1.521-.747 1.888-.895.535-.215.656-.347.61-.664-.09-.643-1.041-.54-2.31.253-1.04.649-3.325 1.88-3.49 1.88-.045 0 .115-.198.356-.44.242-.241.5-.402.575-.356.201.125 2.493-1.246 2.895-1.731.315-.381.432-.41 1.22-.298.844.12.874.144.922.733l.049.61-1.582.589c-.918.342-1.654.726-1.755.915-.096.18-.262.326-.368.326-.107 0-.752.266-1.433.59-1.44.685-3.122 1.173-4.423 1.284-.503.042-.92.05-.924.018zm10.343-.437c-.253-.102-.295-.863-.056-1.011.09-.055.22-.009.289.104.079.127.05.157-.075.08-.246-.152-.25-.08-.032.495.094.246.153.441.131.434a13.544 13.544 0 01-.257-.102zm-7.892-1.193c.335-.13.728-.235.872-.235.144 0-.014.106-.35.235-.335.13-.727.235-.871.235-.144 0 .013-.106.349-.235zm-1.817-.199c-.096-.25-.07-.256.2-.05.17.131.341.26.381.287.04.027-.05.05-.2.05-.149 0-.32-.13-.381-.287zm-.259-.87c-.01-.32.105-.644.278-.785.251-.204.273-.203.146.008-.081.135-.206.488-.277.784l-.129.539zm2.409.27c-.18-.112-.116-.156.233-.158.521-.002.615.083.246.225-.128.049-.344.02-.48-.066zm14.183-.019c.108-.322.43-.36.544-.061.072.188-.004.269-.255.269-.199 0-.327-.092-.289-.208zm-16.171-2.056c-.058-.094-.018-.336.09-.537.107-.2.15-.653.096-1.006-.174-1.13-.124-2.186.15-3.17l.269-.96-.122.873c-.067.48-.137 1.617-.157 2.529-.033 1.587-.096 2.442-.181 2.442-.022 0-.087-.077-.145-.171zm14.006-.646c.125-.05.276-.044.334.013.058.058-.045.1-.23.092-.202-.008-.244-.05-.104-.105zm-1.363-.11c0-.03.247-.285.55-.567l.55-.512-.409.567c-.34.472-.691.732-.691.512zm3.281-.24c.126-.05.276-.043.334.015.058.058-.045.099-.228.091-.204-.008-.245-.05-.106-.105zm-6.601-.672c-.153-.184-.167-.326-.044-.448.123-.123.206-.038.265.269.1.522.078.54-.221.179zm1.052.203c0-.036.138-.174.306-.305.276-.217.283-.211.066.066-.228.29-.371.383-.371.239zm3.838-1.221c0-.036.137-.174.305-.305.277-.217.283-.211.066.066-.228.29-.371.383-.371.24zm-7.93-1.457c-.52-.766-.555-1.137-.137-1.464.275-.216.282-.21.072.058-.26.332-.112.73.223.602.119-.045.327-.013.462.073.174.11.182.156.028.158-.12.002-.218.2-.218.439 0 .279.098.436.272.436.15 0 .223.078.164.174-.192.31-.415.188-.866-.476zm3.162.52c-.044-.072.285-.141.73-.154.625-.018.71.007.375.113-.586.184-1.01.2-1.105.041zm-1.893-.337c.126-.05.276-.044.334.014.058.057-.045.099-.229.091-.203-.008-.244-.05-.105-.105zm4.7-.332c-.055-.089.044-.34.22-.557.187-.23.366-.32.43-.217.06.098.025.178-.08.178-.105 0-.253.17-.33.38-.077.207-.185.305-.24.216zm-4.177-.366c.126-.05.277-.044.335.014.058.058-.045.099-.23.091-.202-.008-.244-.05-.105-.105zm5.105-.72c-.008-.125-.1-.174-.206-.11-.114.072-.1-.047.036-.294.196-.355.237-.37.293-.105.035.17.025.405-.022.523-.066.161-.09.158-.101-.014zm3.387-.507c.192-.047.467-.185.61-.306.145-.122.459-.312.698-.423l.436-.202-.392.288c-.216.158-.392.396-.392.528 0 .165-.205.234-.654.22-.374-.011-.505-.057-.306-.105zm-12.122-.998c0-.138.071-.295.158-.349.087-.054.117.06.067.251-.106.408-.225.459-.225.098zm-1.523-2.678c-.178-.26-.225-.265-.384-.036-.11.16-.181.181-.183.054-.005-.36.369-.455.658-.166.153.153.24.316.195.361-.046.046-.174-.05-.286-.214zm1-1.334c0-.138.062-.289.137-.336.075-.046.137.067.137.252s-.062.336-.137.336c-.075 0-.137-.113-.137-.252zm.83-.213c.12-.049.174-.16.12-.248-.054-.088-.02-.16.076-.16.308 0 .377.31.092.418-.15.058-.327.1-.391.092-.064-.007-.018-.053.103-.102zm-4.202-1.919c-.064-.064-.116-.234-.116-.379 0-.144-.126-.401-.28-.57-.218-.242-.284-.74-.301-2.282-.025-2.244.04-2.664.63-3.997.233-.527.523-1.268.645-1.647s.477-1.356.788-2.171c.312-.816.703-2.229.869-3.14.166-.911.406-1.892.533-2.18.658-1.492.953-2.246.953-2.437 0-.453 1.238-1.453 2.681-2.164 1.402-.692 1.553-.73 2.127-.54.34.111.8.157 1.024.101.244-.061.487-.006.606.138.159.19.103.264-.271.358-.26.065-.664.27-.9.456-.237.186-.538.338-.669.338-.324 0-.299.176.067.457.208.16.245.277.114.368-.106.074-.285.31-.399.527-.143.272-.365.392-.726.392-.538 0-.505-.04-2.048 2.442-.209.336-.38.523-.382.417-.002-.107.193-.483.433-.837.24-.353.436-.747.436-.875 0-.127.119-.33.264-.451.193-.16.213-.28.075-.446-.14-.168-.096-.32.172-.587.397-.397.633-.452.797-.186.211.342.637.187.579-.21-.042-.288-.237-.431-.775-.567-.395-.1-.85-.294-1.013-.43-.262-.222-.373-.165-1.025.523-.402.424-.915 1.203-1.14 1.73a34.253 34.253 0 01-.662 1.469c-.14.28-.419 1.379-.62 2.442-.2 1.063-.538 2.286-.753 2.717a13.208 13.208 0 00-.689 1.824 13 13 0 01-.726 1.882c-.57 1.125-1.007 3.67-.793 4.621.089.394.125.903.081 1.132-.103.543.416 1.044.566.546a6.31 6.31 0 01.35-.818c.141-.275.206-.681.147-.916-.077-.306-.034-.422.157-.422.288 0 .211.493-.286 1.831-.142.384-.216.914-.164 1.178.088.447-.09.63-.356.363zm7.683-20.316c.635-.184.867-.448.615-.7-.22-.22-1.49.106-1.781.457-.27.326-.057.677.317.523.159-.065.54-.19.849-.28zm3.204 19.86c.04-.027.23-.165.421-.306.323-.236.33-.233.11.05-.132.168-.322.305-.422.305-.1 0-.15-.022-.11-.05zm18.299-.76c0-.188-.094-.436-.21-.551-.159-.16-.16-.21-.002-.21.227 0 .492.825.32.997-.06.06-.108-.046-.108-.235zm-15.349-.325c0-.144-.094-.261-.21-.261-.15 0-.144-.06.023-.218.185-.175.247-.173.313.007.063.173.14.178.327.022.156-.129.245-.137.245-.021 0 .1.047.305.106.457.08.208-.006.276-.35.276-.287 0-.454-.096-.454-.262zm-1.57-1.445c-.335-.351-.476-.536-.313-.41.417.32.714.08.578-.464-.101-.402.14-.694 2.296-2.779 1.326-1.281 2.713-2.539 3.084-2.794.653-.45.68-.455.916-.134.133.182.242.38.242.438 0 .058-.65.809-1.443 1.667-2.264 2.45-2.395 2.635-2.395 3.411 0 .452-.09.724-.261.79-.144.056-.262.304-.262.553 0 .35-.047.405-.208.244-.161-.161-.122-.325.174-.725.442-.598.486-.88.138-.88-.135 0-.527.392-.872.871-.345.48-.725.868-.845.862-.12-.006-.493-.298-.829-.65zm.872.312c0-.096-.083-.175-.184-.175-.102 0-.137.079-.077.175.06.096.142.174.184.174.043 0 .077-.078.077-.174zm-1.744-.524c-.157-.101-.178-.17-.054-.171a.406.406 0 01.316.171c.134.217.073.217-.262 0zm5.625-.115c-.12-.048-.218-.174-.218-.28 0-.545 3.684-4.7 3.94-4.444.202.202-.586 1.243-2.012 2.655-.773.765-1.405 1.452-1.405 1.526 0 .074.157.135.35.135.193 0 .348.116.348.262 0 .256-.536.334-1.003.146zm-7.391-.539c-.217-.276-.211-.282.066-.066.167.132.305.27.305.306 0 .143-.143.05-.371-.24zm1.025-.159a.673.673 0 01.436 0c.12.049.022.088-.218.088s-.338-.04-.218-.088zm-9.523-.786c-.032-.572.126-1.017.362-1.017.119 0 .118.073-.003.218-.099.12-.214.454-.256.741-.073.5-.078.503-.103.058zm5.773-.849c-.581-1.323-.518-2.23.174-2.486a.514.514 0 00.306-.453c0-.187.052-.477.116-.644.08-.208.052-.265-.087-.179-.127.079-.205.007-.206-.19a3.96 3.96 0 00-.111-.75c-.071-.286-.05-.377.062-.262.286.291.792 2.17.69 2.56-.063.24.026.463.258.652.294.238.333.4.228.96a2.88 2.88 0 01-.582 1.179l-.456.507zm2.55.399c-.217-.277-.21-.283.066-.066.168.132.306.27.306.305 0 .144-.144.052-.372-.239zm-7.477-2.552c0-.037.157-.108.349-.158.191-.05.348-.02.348.066 0 .087-.157.159-.348.159-.192 0-.35-.03-.35-.067zm.959-.98c.174-.192.355-.349.403-.349.048 0-.055.157-.229.349-.173.192-.355.349-.403.349-.048 0 .055-.157.229-.349zm0-.698l-.523-.133.47-.02c.257-.012.517.058.576.153.06.096.084.166.054.154-.03-.011-.29-.08-.577-.154zm-.953-1.7c-.003-.121.504-.715 1.127-1.32.624-.606 1.134-1.048 1.134-.983 0 .065-.412.5-.916.964-.503.465-1.01 1.006-1.127 1.201-.117.196-.215.257-.218.137zm1.738-.258c0-.318.31-.581.48-.41.06.06-.023.242-.185.404-.272.272-.295.272-.295.006zm3.051-.136c-.137-.222.06-.87.264-.87.254 0 .377.33.26.698-.12.377-.35.452-.524.172zm6.367-.696c0-.096.084-.175.185-.175.102 0 .136.079.077.175-.06.096-.142.174-.185.174-.042 0-.077-.078-.077-.174zm-6.22-1.09c.139-.996.447-2.44.54-2.533.042-.041.147-.031.234.022.197.122-.492 3.252-.716 3.252-.09 0-.116-.327-.058-.742zm.235-.338c-.056-.14-.097-.098-.105.105-.008.184.033.287.091.229.058-.058.064-.208.014-.334zm-2.91-.266c0-.1.137-.29.305-.422.283-.221.286-.213.05.11-.141.192-.278.381-.306.421-.027.04-.049-.009-.049-.11zm.537-1.024c.008-.204.05-.245.106-.106.05.126.044.277-.014.335-.058.058-.1-.045-.092-.23z"
          ></path>
          <!-- left side -->
            <!-- fill="#E3E2E4" -->
          <path
            fill="#FFBD68"
            strokeWidth="0.174"
            d="M199.894 58.576c-.192-.084-.663-.111-1.047-.062-.653.085-.711.056-.9-.446-.257-.678-.851-.729-1.14-.096-.22.483-.45.489-.738.018-.15-.246-.095-.385.287-.717.55-.479 1.734-.668 3.45-.551.624.042 1.395.085 1.713.094.487.015.562.07.472.352-.058.184-.024.385.076.446.3.185.205.765-.156.958-.402.215-1.528.217-2.017.004zm15.863-.012c-.066-.107.007-.32.162-.476.26-.26.283-.253.283.093 0 .435-.27.667-.445.383zm-6.27-.16c.059-.096.181-.175.272-.175.09 0 .164.079.164.175 0 .095-.123.174-.272.174-.15 0-.224-.079-.164-.174zm-15.262-31.198V-.724h13.879c11.795 0 13.916.037 14.128.25.343.342.333 1.494-.013 1.494-.145 0-.262.155-.262.35 0 .255.117.348.437.348.401 0 .436.063.436.801 0 .655-.064.818-.35.893-.191.05-.348.16-.348.245 0 .085-.236.154-.523.154-.477 0-.524.051-.524.583 0 .68-.442 1.161-1.065 1.161-.47 0-1.16.415-1.522.914-.152.21-.351.284-.572.213-.233-.073-.531.061-.95.43-.337.295-.69.536-.785.536-.095 0-.244.188-.331.418-.166.437-1.053.977-1.604.977-.177 0-.322.06-.322.133 0 .279.705.555 1.177.46.299-.06.905.051 1.534.28.571.207 1.295.453 1.607.546.394.117.668.365.895.814.486.956.767 2.498.556 3.052-.197.52.098 1.52 1.014 3.436.875 1.829.69 2.336-.981 2.696-.705.152-.744.223-.501.925l.196.568L221 20.814c.862-.626 1.83-1.45 2.15-1.832.487-.582.686-.694 1.233-.694.677 0 1.027.268 1.645 1.264.195.314.447.48.73.48.66 0 1.13.58 1.13 1.395 0 .384-.079.698-.175.698-.096 0-.174-.298-.174-.663 0-.755-.245-1.081-.812-1.081-.23 0-.523-.192-.706-.46-.598-.88-1.248-1.459-1.636-1.459-.236 0-.671.302-1.104.766-.716.768-4.312 3.42-4.638 3.42-.257 0-.211-.275.088-.524.17-.14.247-.46.218-.901-.044-.681-.04-.685.893-1.005 1.47-.504 1.49-.704.319-3.15-.634-1.324-.712-1.628-.733-2.877-.024-1.462-.27-2.568-.69-3.118-.282-.368-2.53-1.055-3.321-1.014a3.619 3.619 0 01-1.088-.159c-.506-.165-.722-.107-2.074.56-1.567.772-2.681 1.717-2.681 2.273 0 .177-.076.322-.168.322-.092 0-.253.334-.357.741a9.555 9.555 0 01-.424 1.265c-.13.288-.371 1.269-.537 2.18-.166.911-.557 2.324-.869 3.14a58.388 58.388 0 00-.788 2.171c-.122.38-.412 1.12-.645 1.647-.537 1.215-.563 1.378-.841 5.212a121.382 121.382 0 01-.582 5.843c-.626 4.74-.806 7.147-1.081 14.429-.074 1.966-.22 3.798-.324 4.07-.104.272-.158.546-.12.61.039.064-.804.138-1.873.164-1.768.043-3.686.205-5.911.499l-.829.11zm15.817 26.554c.111-1.57.62-2.272 2.235-3.08.48-.24 1.022-.602 1.205-.804.825-.914 1.284-.25 1.395 2.019.043.88.167 1.765.274 1.965.107.2.15.438.094.528-.06.096-1.056.12-2.444.057-1.659-.075-2.413-.047-2.586.096-.204.17-.232.045-.173-.781zm15.679.366c.342-.82.187-1.548-.423-1.983-.38-.27-.842-.346-2.423-.394-1.441-.045-2.02-.129-2.212-.322-.198-.2-.297-1.01-.414-3.401-.085-1.727-.147-3.153-.138-3.17.009-.015.665-.117 1.458-.226 3.774-.517 7.414-3.453 11.96-9.647.548-.746 1.258-1.648 1.578-2.006.846-.943 1.206-1.732 1.08-2.362-.12-.603-.563-1.165-.918-1.165-.312 0-.566-.685-.46-1.24.118-.617-.36-1.004-.856-.694-.315.197-.346.188-.248-.068.062-.162.113-.326.113-.367 0-.04.157-.073.349-.073.546 0 1.095.654.994 1.184-.107.559.017.91.32.91.414 0 .995 1.026.985 1.74-.01.682-.61 2.097-.89 2.097-.084 0-.9 1-1.815 2.224-3.8 5.082-6.812 8.026-9.274 9.066-.603.255-.89.483-.93.738-.042.277-.14.344-.39.264-.722-.229-.758.393-.063 1.088.335.335.182.837-.25.82-.34-.012-.373.077-.373.993 0 .554-.079 1.055-.175 1.115-.096.059-.174.223-.174.365 0 .207.166.235.855.144.741-.098.88-.067 1.04.232.237.443.104.567-.61.567-.383 0-.633.109-.75.326-.25.47-.087.546 1.168.546 1.668 0 2.487.622 2.48 1.883-.003.557-.344 1.287-.648 1.387-.155.051-.14-.108.054-.571zm-3.502-3.222c.06-.096-.02-.175-.174-.175-.155 0-.234.079-.175.175.06.096.138.174.175.174.036 0 .115-.078.174-.174zm-.201-4.455c-.114-.298-.436-.261-.544.062-.038.115.09.207.29.207.25 0 .326-.08.254-.27zm1.117 2.944a.673.673 0 01.436 0c.12.048.022.088-.218.088s-.338-.04-.218-.088zm-13.736-3.606c0-.097-.128-.318-.285-.491-.431-.476-.778-3.87-.577-5.639.193-1.7.435-3.035.576-3.176.057-.057.23.001.384.13.21.174.255.409.177.94-.102.693-.09.713.596 1 .385.16.744.436.798.61.438 1.426 1.478 2.582 3.108 3.456.532.285.4.494-.649 1.034-.543.28-.988.602-.988.717 0 .114-.37.396-.824.625-.453.229-.93.515-1.059.635-.13.12-.288.224-.353.232-.734.09-.904.076-.904-.073zm17.617-8.488c0-.096.078-.174.174-.174.096 0 .174.078.174.174a.175.175 0 01-.174.175.175.175 0 01-.174-.175zm-1.649-1.51c-.15-.598.118-.856 1.91-1.842 2.072-1.14 2.878-1.684 2.878-1.94 0-.21-.344-.444-1.046-.713-.144-.055.052-.055.436 0 .8.115 1.228.45 1.078.841-.106.276-1.087.926-3.477 2.304-1.35.778-1.607 1.14-1.142 1.604.163.163.128.21-.156.21-.25 0-.401-.147-.48-.465zm1.017-3.976c-.14-.363.01-.537 1.122-1.306 1.851-1.28 2.068-1.508 1.82-1.917-.122-.2-.145-.36-.05-.36.093 0 .257.163.364.363.235.44-.01.756-1.313 1.688-1.441 1.03-1.683 1.287-1.462 1.552.148.18.126.234-.095.234a.44.44 0 01-.386-.254zm6.387-1.665c0-.096.123-.174.272-.174.15 0 .224.078.164.174-.059.096-.181.174-.271.174-.09 0-.165-.078-.165-.174zm-7.375-1.307c-.26-.326-.473-.637-.473-.691 0-.054.412-.562.915-1.13.504-.567 1.133-1.284 1.4-1.593.265-.31.525-.52.576-.468.052.051-.087.285-.308.518-.768.81-2.235 2.555-2.235 2.66 0 .059.171.338.38.62.538.728.316.8-.255.084zm-6.665-.088c-.06-.096-.025-.175.077-.175.101 0 .184.079.184.175 0 .096-.034.174-.077.174-.042 0-.125-.078-.184-.174zm12.45-.225c-.252-.212-.559-.582-.682-.822-.184-.36-.084-.314.572.262.761.667.98.966.698.953-.072-.004-.337-.18-.589-.393zm-8.796-.487c-.235-.38 2.767-4.178 3.68-4.657.632-.331.901-.063.62.617-.219.527-3.507 3.912-3.507 3.61 0-.096.632-.8 1.405-1.566 1.426-1.412 2.214-2.453 2.012-2.655-.256-.256-3.94 3.9-3.94 4.444 0 .106.098.231.218.28.134.054.105.093-.077.102-.162.007-.347-.072-.411-.175zm-4.164-.429c-.064-.257-.017-.573.112-.75.365-.505 4.651-4.608 5.28-5.055.688-.49 1.256-.392 1.416.244.089.354-.099.652-1.09 1.738a76.525 76.525 0 00-1.978 2.254c-.43.52-.813.912-.852.873-.132-.132.448-.865 2.134-2.701.924-1.005 1.68-1.872 1.68-1.926 0-.054-.11-.247-.242-.429-.235-.32-.263-.317-.916.134-.37.255-1.758 1.513-3.084 2.794-2.196 2.124-2.399 2.371-2.292 2.798.065.258.079.469.03.469-.047 0-.136-.2-.198-.443zm14.119-.73c-.626-1.367-.888-1.618-1.689-1.618-.368 0-.67-.072-.67-.16 0-.09-.198-.397-.44-.685-.37-.439-.423-.635-.33-1.218.095-.593.057-.723-.26-.893-.205-.11-.47-.145-.587-.078-.154.086-.152.053.01-.12.19-.205.295-.201.697.03.417.238.468.361.424 1.028-.043.655.028.839.522 1.348.412.426.676.564.944.497.472-.118 1.287.499 1.287.973 0 .192.197.605.436.92.45.589.558.975.275.975-.09 0-.367-.45-.619-.999zm-19.723-.004a11.91 11.91 0 00-.352-1.183c-.358-1.01-.32-1.93.1-2.35.354-.353.982-.493.784-.174a.44.44 0 01-.34.175c-.568 0-.582 1.324-.026 2.5l.399.842.463-.55c.255-.304.464-.718.464-.922 0-.256.056-.314.18-.19.261.261-.085 1.077-.748 1.765-.667.69-.792.702-.924.087zm16.478-.853c-.232-.253-.311-.425-.176-.383.23.072.85.843.677.843-.043 0-.268-.207-.5-.46z"
          ></path>
          <!-- middle inside -->
          <path
            fill="#59565E"
            strokeWidth="0.174"
            d="M207.617 58.656c-.06-.06-1.046-.124-2.19-.141-1.951-.03-2.128-.062-2.805-.51-.397-.263-.723-.546-.723-.629 0-.447.606-.583 2.554-.573 1.722.009 2.176.072 2.97.413.86.37.933.445.89.925-.044.487-.435.776-.696.515zm-2.536-3.249a2.246 2.246 0 00-1.045-.316c-.681-.002-1.35-.583-1.17-1.018.224-.543.41-2.897.422-5.35.011-2.268.15-3.175.421-2.738.06.097.255.792.433 1.544l.324 1.369.94-.014c1.204-.018 2.875-.48 4.448-1.228.681-.324 1.326-.59 1.433-.59.106 0 .272-.146.368-.326.101-.189.837-.573 1.755-.915l1.582-.59-.05-.61c-.045-.57-.093-.614-.703-.665-.794-.066-.819-.2-.11-.603.449-.255.504-.352.326-.566-.118-.143-.287-.26-.375-.26-.196 0-1.06-.615-1.786-1.272-.297-.269-.41-.44-.252-.381.158.06.339.024.402-.079.173-.278.618-.224.618.076 0 .144.12.261.267.261.147 0 .315.126.374.279.077.201.245.25.605.179.41-.082.498-.04.498.234 0 .184-.078.383-.174.442-.286.177-.2.41.262.714.403.264.468.264.872 0 .24-.157.437-.382.438-.5 0-.118.354-.683.784-1.257.431-.574.783-1.12.783-1.214 0-.095.204-.334.454-.533.32-.256.433-.487.386-.791-.062-.403-.09-.385-.437.267-.651 1.225-1.284 1.687-2.406 1.754-.886.053-1.037.008-1.507-.44-.368-.353-.779-.534-1.398-.62-.816-.112-.869-.149-.771-.538.082-.326.035-.418-.213-.418a.854.854 0 00-.526.21c-.163.163-.258.16-.427-.013-.12-.122-.14-.2-.044-.172.096.027.358-.052.583-.177.422-.233 1.248-.138 1.248.144 0 .212 2.549 1.5 3.287 1.66.496.109.66.053 1.106-.37.288-.273.711-.864.94-1.313.491-.963.66-1.099.942-.759.342.412-.32 2.71-.781 2.71-.327 0-1.24 1.097-1.75 2.105l-.442.871.5.422c.412.345.487.523.42.996-.043.317-.153.669-.243.782-.103.13-.098.447.014.853.116.418.12.759.012.96-.273.51-.193 1.002.182 1.12.31.1.337.213.24 1.032-.088.754-.057.94.175 1.03.157.06.282.303.282.55 0 .435.019.44 1.395.44 1.099 0 1.396-.053 1.396-.25 0-.219.062-.22.48-.001.263.137.793.251 1.177.253.492.003.623.051.444.164-.14.089-.317.122-.394.074-.077-.048-.297-.038-.488.023-.459.146-.446.718.02.84.218.057.316.176.242.296-.072.116-.306.154-.558.091-.238-.06-.543-.018-.676.093-.145.12-.481.157-.832.091-.418-.078-.651-.034-.808.155-.12.146-.436.265-.7.265-.607 0-1.01.44-.763.833.259.41.51.442.843.109.474-.475 1.467-.915 1.842-.817.38.099.473.395.127.404-.12.003.214.155.741.338.894.31.99.313 1.396.048.286-.186.832-.288 1.586-.295.747-.006 1.267-.102 1.48-.271.319-.253.32-.246.05.174-.164.255-.526.488-.87.56-2.587.546-2.584.546-3.247.328-.56-.184-.934-.16-2.552.162-1.81.36-1.93.364-2.662.084-.742-.283-1.226-.807-1.033-1.119.052-.084-.023-.433-.166-.776-.317-.758-.32-.809-.038-.809.154 0 .223-.286.22-.915-.003-.894.008-.915.468-.86.385.044.493-.03.587-.401.16-.638-.032-.742-.52-.282-.572.536-.71.26-.713-1.422-.002-.813-.073-1.335-.178-1.309-.095.024-.18.358-.186.742-.019 1.037-.05 1.133-.358 1.133-.222 0-.24-.052-.082-.242.124-.149.158-.508.09-.936-.067-.419-.028-.849.098-1.084.279-.522-.033-.888-.482-.567-.165.118-.693.43-1.172.693-.48.264-1.187.811-1.574 1.217-.758.797-1.828 1.201-1.828.69 0-.364-.207-.473-.672-.351-.28.073-.356.19-.28.428.057.18.021.327-.079.327s-.229.182-.285.405c-.055.223-.34.546-.633.719-.305.18-.453.362-.347.428.109.067.124.212.038.352-.1.162.042.425.445.83.614.613.745 1.19.412 1.812-.215.401-.909.445-1.215.076-.36-.433-.66-.317-.563.218.048.264.164.578.26.698.204.26 2.524.297 2.92.047.143-.09.358-.502.476-.913.134-.467.19-.552.147-.226-.037.286.003.653.09.815.234.44-.74.695-2.818.74-1.425.031-1.822-.018-2.214-.277zm11.881-.404c.056-.144.034-.262-.047-.262-.08 0-.245.118-.364.262-.177.213-.168.261.047.261.145 0 .31-.118.364-.261zm-9.207-1.042c.264-.403.26-.459-.057-.863-.42-.532-.74-.303-.74.53 0 .471.092.617.475.75.022.008.167-.18.322-.417zm10.227-.725c.248-.07.265-.154.102-.51-.226-.497-.333-.516-.998-.172-.503.26-.774.67-.575.868.1.101.732.021 1.47-.186zm-1.78-6.518a.175.175 0 00-.175-.175.175.175 0 00-.174.175c0 .096.078.174.174.174a.175.175 0 00.175-.174zm-6.266 6.526c.008-.203.05-.245.106-.106.05.126.044.277-.014.335-.058.058-.1-.045-.091-.23zm14.812-1.294c-.157-.101-.179-.17-.054-.172a.406.406 0 01.316.172c.134.217.073.217-.262 0zm-13.953-.436c.225-.24.449-.436.497-.436.048 0-.097.196-.323.436-.225.24-.449.436-.497.436-.048 0 .097-.196.323-.436zm7.427-4.314c-.308-1.51-.262-1.607.68-1.43.575.107.614.156.614.782 0 .724-.028.76-.738.929-.399.095-.488.05-.556-.281zm-12.795-.056c-.452-.316-.5-.924-.132-1.637.141-.272.263-.72.272-.994.009-.274.04-1.362.069-2.417.029-1.056.127-2.272.218-2.704.09-.432.12-1.313.064-1.958-.083-.957-.045-1.247.204-1.57.491-.639.377-1.49-.363-2.706-.365-.6-.716-1.038-.78-.974-.182.183-.133 1.114.093 1.739.166.46.16.662-.036 1.027-.209.39-.207.475.011.614.211.133.203.16-.048.163-.186.001-.343.186-.409.482-.059.264-.143.614-.187.778-.045.165.003.456.106.647.132.249.131.564-.005 1.097-.106.412-.182.905-.17 1.097.064 1.021.009 1.517-.229 2.04a6.233 6.233 0 00-.342.925c-.043.192-.088.039-.099-.34-.027-.91.267-3.92.7-7.16.192-1.439.395-3.46.45-4.49.057-1.032.17-1.876.251-1.876.082 0 .149.304.149.676 0 .376.111.77.25.885.139.115.276.373.306.575.107.723.46.525.448-.252-.006-.413.118-1.002.277-1.309.159-.306.288-.705.288-.886 0-.18.058-.386.129-.457.07-.07.146-.567.167-1.103.022-.537.117-1.054.212-1.148.114-.114.087-.378-.079-.776-.225-.538-.22-.655.04-1.097.242-.409.376-.477.784-.395.388.077.492.034.492-.204 0-.166.196-.535.437-.821.505-.6.437-.839-.238-.839-.6 0-.899-.29-.89-.863.007-.606.285-1.03 1.24-1.9a6.33 6.33 0 001.28-1.734c.72-1.534 1.137-2.31 1.77-3.308.49-.77.665-.916 1.102-.916.36 0 .582-.12.725-.392.114-.216.294-.453.4-.527.13-.091.094-.209-.114-.368-.366-.28-.392-.457-.067-.457.13 0 .431-.152.667-.338.237-.186.64-.39.895-.455.265-.066.415-.196.35-.302-.075-.12.001-.14.219-.057.183.07.706.208 1.162.305.456.098.829.213.829.255 0 .043-.204.155-.453.25-.249.094-.492.322-.54.505-.061.234-.225.325-.55.303-.443-.029-.463.007-.463.842 0 1.171-.548 1.831-1.52 1.831-.734 0-1.025.345-.661.784.159.192.296.21.55.075.561-.3 1.368.127.846.45-.096.059-.174.302-.174.54 0 .255-.09.416-.218.39-.277-.056-1.003.34-1.003.547 0 .086.216.181.48.212.366.042.491.16.531.501.078.672-.251 1.385-.64 1.385-.27 0-.348.147-.397.741-.1 1.217-.004 1.527.474 1.527.518 0 .533.117.067.495-.346.28-.348.31-.059.888.165.33.336.985.382 1.458.071.744.185.954.862 1.581.717.665 1.69 1.308 2.006 1.326.072.004.131-.093.131-.217 0-.123.412-.615.916-1.094 1.6-1.522 2.015-1.781.603-.377-1.296 1.288-1.354 1.38-1.245 1.96.136.723.033.75-.654.171-.285-.24-.698-.436-.918-.436-.273 0-.546-.22-.861-.697-.254-.384-.579-.698-.721-.698-.442 0-.293.821.264 1.456.288.328.523.649.523.713 0 .065.15.447.333.85.183.402.388 1.025.456 1.385.136.727.3.812.64.332.126-.177.542-.422.926-.544.384-.123.772-.292.863-.376.261-.242.62-.179.62.108 0 .155.16.262.392.262.353 0 .395-.092.42-.9.018-.62.113-.948.305-1.055.154-.086.278-.38.278-.66 0-.6.28-.842.43-.37.058.183-.047.733-.233 1.223-.336.884-.336.89.005.89.189 0 .504-.086.7-.19.228-.123.416-.13.524-.023.259.259-.027 1.402-.49 1.951-.227.27-.413.54-.413.598 0 .058.32.106.712.106 1.004 0 .8.399-.29.571-1.7.27-1.7.27-1.833-.37-.17-.816-.361-.947-.864-.595-.236.165-.554.28-.707.253-.154-.025-.379.074-.501.221-.123.148-.418.269-.656.269-.238 0-.666.196-.951.436-.332.279-.733.436-1.116.436-.328 0-.597.064-.597.142 0 .242-1.24.747-1.573.641-.174-.055-.366-.018-.428.082s-.27.181-.463.181-.688.232-1.1.516c-.412.283-1.28.648-1.93.811-1.126.283-1.207.282-1.768-.02-.324-.174-.612-.284-.64-.245-.205.286-.528 2.352-.5 3.196.02.567-.084 2.275-.229 3.796-.324 3.393-.332 3.109.085 3.109.231 0 .349.116.349.345 0 .424.474.555 1.657.456.48-.04.894-.08.921-.088.028-.009-.044-.192-.159-.408-.185-.347-.177-.366.062-.169.81.669.384 1.226-1.385 1.81-1.192.393-1.77.405-2.278.05zm2.577-.707c0-.037-.216-.067-.48-.065-.349.001-.412.045-.233.158.222.14.713.077.713-.093zm.523-11.384c0-.084-.12-.253-.269-.376-.209-.174-.315-.177-.478-.014-.162.162-.151.245.051.373.329.208.696.217.696.017zm1.476-1.566c.366-.178.589-.37.496-.429-.29-.179-1.184.152-1.243.46-.07.364-.064.364.747-.031zm-.952-.461c.24-.137.767-.252 1.172-.256 1.325-.01 5.663-1.653 5.883-2.227.151-.394-.6-2.324-1.157-2.974-.304-.355-.491-.773-.491-1.1 0-.306-.073-.483-.174-.42-.113.07-.12-.035-.023-.295.195-.519.053-1.468-.259-1.726-.133-.111-.242-.419-.242-.684 0-.565-.507-2.275-.75-2.527-.108-.113-.131-.02-.066.261.276 1.185.33 1.919.14 1.919-.108 0-.196-.2-.196-.446 0-.264-.203-.637-.498-.916-.273-.258-.762-.96-1.087-1.56-.627-1.161-.857-1.343-.857-.677 0 .543-.636 1.344-.966 1.218-.438-.169-.28-.78.355-1.38.336-.317.61-.66.61-.762 0-.292.444-.218.716.119.136.168.44.678.678 1.134.237.455.484.828.549.828.065 0 .075-.47.023-1.043-.065-.715.001-1.383.209-2.124.296-1.055.39-2.773.171-3.127-.177-.286-.525.115-.86.993-.168.439-.57 1.201-.895 1.694-.325.492-.59.956-.59 1.03 0 .075-.515.653-1.144 1.285-.988.993-1.136 1.224-1.09 1.7.049.5.115.556.708.605.621.052.654.085.654.67 0 .463-.192.858-.781 1.608-.774.985-.782 1.007-.818 2.47-.023.956-.147 1.743-.35 2.228-.357.851-.452 1.595-.249 1.925.081.131.028.346-.127.518-.413.458-.145 1.331.57 1.858.696.512.661.507 1.231.18zm3.568-5.68c-.063-.103-.078-.224-.032-.27.046-.045.13.039.187.187.118.307.017.361-.155.083zm-2.564-7.764c-.172-.171-.481.092-.481.41 0 .266.023.266.295-.006.162-.162.246-.344.186-.404zm3.094.102c.117-.368-.006-.699-.26-.699-.204 0-.4.65-.264.87.174.281.405.206.524-.17zm.199-2.45c.2-.891.287-1.62.198-1.675-.087-.053-.192-.063-.234-.022-.093.094-.401 1.537-.54 2.533-.19 1.354.214.769.576-.836zm1.11 1.228c0-.096-.118-.174-.262-.174-.144 0-.262.078-.262.174 0 .096.118.174.262.174.144 0 .262-.078.262-.174zM203.51 44.276c0-.336.036-.473.08-.305.043.167.043.442 0 .61-.044.168-.08.03-.08-.305zm16.834.408a.673.673 0 01.436 0c.12.048.022.088-.218.088s-.338-.04-.218-.088zm1.58-.178c.127-.05.277-.045.335.013.058.058-.045.1-.229.092-.203-.008-.244-.05-.105-.106zm-9.385-.23c0-.096.083-.175.185-.175.101 0 .136.079.077.175-.06.096-.143.174-.185.174-.042 0-.077-.078-.077-.174zm5.362-.103c-.272-.272-.104-.674.612-1.466 1.012-1.12 2.573-3.38 2.724-3.943.102-.38.385-.57 1.6-1.068 1.498-.615 2.423-1.288 2.448-1.781.01-.201.038-.212.107-.04.14.35-.969 1.4-1.903 1.804-.452.196-.913.465-1.024.599a.745.745 0 01-.5.242c-.166 0-.394.206-.509.458-.318.698-1.937 2.979-2.772 3.904l-.744.826.548.11c.818.163 1.69.132 1.813-.065.059-.096.358-.176.664-.177.567-.002 2.381-.827 2.948-1.34.171-.155.312-.39.312-.522 0-.181.08-.198.325-.067.422.226 1.296-.523 1.679-1.438.167-.4.385-.642.58-.642.427 0 .73-.34.73-.82 0-.408.255-.5 1.17-.423.255.021.484-.131.679-.453 1.406-2.316 3.014-4.453 4.228-5.617 1.476-1.416 1.815-2.017 1.456-2.582-.103-.162-.305-.13-.842.136-.727.36-1.284.311-1.284-.111 0-.414.559-1.714.886-2.062.302-.322.304-.306.05.436-.145.423-.336.843-.425.935-.237.242-.198.793.056.792.12 0 .451-.142.736-.316.46-.278.576-.287 1.005-.072.267.133.443.311.391.396-.052.084-.135.568-.185 1.076-.05.508-.204 1.15-.343 1.43-.305.611-.312.684-.051.523.122-.076.154-.048.081.07a.29.29 0 01-.336.11c-.23-.088-1.69.9-1.69 1.143 0 .079-.146.105-.323.059-.24-.063-.407.087-.65.583-.18.367-.34.807-.352.977-.029.374-.53.955-.935 1.084-.162.051-.472.409-.689.794-.217.386-.613.863-.88 1.06-.267.198-.655.698-.861 1.11-.239.479-.528.79-.795.857-.23.058-.641.282-.912.498-.271.216-.873.589-1.337.828-.463.24-.926.593-1.029.785-.256.481-.502.612-.941.502-.207-.052-.62.033-.92.187-.963.499-4.289.998-4.596.69zm-9.514-2.252c.004-.288.043-.384.087-.215.044.17.041.406-.006.524-.048.118-.084-.021-.08-.309zm20.896-1.897c0-.036.137-.174.305-.305.277-.217.283-.211.066.066-.228.29-.37.383-.37.239zm-19.23-1.556c-.31-.123-.477-.316-.474-.548.005-.355.01-.355.264-.018.257.34.262.34.61-.009.295-.295.327-.46.204-1.04l-.147-.688-.322.61c-.22.417-.348.528-.404.35a2.154 2.154 0 00-.277-.524c-.167-.224-.153-.229.098-.032.251.196.322.176.492-.141.109-.204.326-.346.483-.316.405.078.486 1.488.11 1.904-.153.17-.227.391-.164.493.063.102.09.177.061.167-.03-.01-.27-.104-.533-.208zm11.207-1.863c0-.587.594-1.233 1.594-1.732.593-.297 1.175-.539 1.294-.539.378 0 1.996-2.017 1.996-2.488 0-.239.13-.542.29-.674.265-.22.268-.205.043.172-.218.363-.212.433.054.606.275.18.262.235-.164.68-.532.555-.246.647.458.146.26-.186.681-.39.936-.453.254-.064.67-.309.923-.544.455-.422.95-.49 1.064-.148.031.095-.55.466-1.294.824-.743.357-1.547.763-1.787.903s-1.221.644-2.18 1.12c-1.477.735-1.798.97-2.094 1.54-.333.638-1.133 1.053-1.133.587zm4.011-1.465c0-.036.138-.173.306-.305.276-.217.282-.21.066.066-.228.29-.372.383-.372.24zm-6.602-2.708c-.176-.11-.184-.18-.032-.274.239-.148.419-.017.33.24-.036.106-.16.12-.298.034zm6.463-1.796c-.295-.294-.259-.67.117-1.242.264-.4.345-.44.432-.21.064.165.002.32-.15.379-.267.102-.371.934-.118.934.293 0 2.07-.931 2.875-1.507.81-.578 1.17-.63 1.17-.169 0 .252-1.371 1.41-1.508 1.273-.05-.05-.517.1-1.04.331-1.063.47-1.47.519-1.778.211zm4.151-1.709c0-.096-.035-.174-.077-.174-.042 0-.125.078-.185.174-.059.096-.024.174.077.174.102 0 .185-.078.185-.174zm-2.192 1.763c.124-.201.797-.607.797-.481 0 .04-.206.208-.458.373-.251.165-.404.214-.339.108zM216.9 28.506c0-.152.125-.277.277-.277.308 0 .254.376-.07.484-.113.038-.207-.056-.207-.207zm14.09-.612c-.79-.764-.884-.922-.66-1.106.325-.267.25-1.175-.097-1.175-.136 0-.346-.157-.466-.349-.13-.208-.407-.349-.688-.349-.316 0-.505-.113-.58-.348-.142-.448-.61-.456-.61-.01 0 .488-.314.61-.38.147a.856.856 0 00-.405-.569c-.192-.098-.349-.336-.349-.528 0-.23-.108-.34-.317-.322-.193.016-.284-.062-.231-.198.047-.124-.016-.37-.14-.55-.421-.605-.507-1.45-.183-1.808.168-.187.24-.425.165-.555-.105-.184-.084-.187.105-.011.129.12.411.218.628.218h.392l-.427.461c-.476.513-.49.565-.263.924.128.204.244.213.607.047.498-.226.537-.145.46.966-.051.753.288.728.61-.044.283-.675.304-.687.786-.43.376.202.468.557.108.419-.126-.049-.378.076-.56.277-.27.299-.287.393-.092.514.131.08.325.114.43.074.106-.04.27.068.365.242.699 1.273.865 1.431 1.515 1.432.615.001 1.045.252.655.382-.319.107.03.7.361.614.23-.06.415.16.761.91.52 1.125.562 1.41.21 1.41-.137 0-.37.046-.52.103-.176.068-.59-.206-1.19-.787zm-7.723.599a9.488 9.488 0 00-.654-.164c-.264-.059-.48-.199-.48-.312 0-.157.05-.156.21.003.313.314 1.534.273 1.534-.052 0-.144-.135-.262-.301-.262-.195 0 .183-.487 1.073-1.382 1.225-1.232 1.402-1.353 1.637-1.118.235.235.213.314-.2.728-.256.255-.87.955-1.364 1.554-.846 1.026-1.024 1.148-1.455 1.005zm1.56-.104a.295.295 0 01.04-.347c.092-.092.156-.015.156.19 0 .396-.032.422-.196.157zm1.046-1.555c1.145-1.289 1.263-1.399.838-.785-.199.288-.66.798-1.026 1.134-.53.488-.493.417.188-.349zm3.514-.785c-.245-.374-.249-.436-.026-.436.226 0 .62.491.62.774 0 .248-.335.057-.594-.338zm-11.015-3.419c-.065-.105.065-.36.289-.566l.407-.375-.316.381c-.174.21-.264.465-.201.567.063.102.075.185.027.185s-.14-.086-.206-.192zm.59-2.287c.093-.093.314-.139.493-.1.24.05.195.094-.17.168-.318.065-.433.04-.323-.068zm-.156-.78c-.098-.259-.155-.789-.126-1.178.043-.588.12-.718.454-.765.899-.127 1.185.818.559 1.845-.42.69-.652.715-.887.097zm.449-.403c.06-.096.025-.175-.077-.175-.101 0-.185.079-.185.175 0 .096.035.174.077.174.043 0 .126-.078.185-.174zm1.068-1.49c-.168-.438-.119-.551.087-.198.102.175.148.355.104.4-.045.045-.131-.046-.19-.202zm-4.258-1.783c-.443-.148-.185-.378.4-.357.335.013.61.08.61.15 0 .155-.721.303-1.01.207zm-7.008-2.221c0-.096.076-.293.169-.437.093-.143.17-.183.17-.087s-.077.292-.17.436c-.093.144-.17.183-.17.088z"
          ></path>
          <!-- darkest inside -->
          <path
            fill="#3E3A44"
            strokeWidth="0.174"
            d="M206.48 55.22c-.096-.12-.212-.433-.26-.697-.096-.535.204-.652.563-.218.306.369 1 .325 1.215-.076.333-.622.202-1.2-.412-1.813-.403-.404-.545-.667-.445-.83.086-.139.07-.284-.038-.351-.106-.066.042-.248.347-.428.293-.173.578-.496.633-.72.056-.222.184-.404.285-.404.1 0 .136-.147.079-.327-.076-.239 0-.355.28-.428.465-.122.672-.014.672.35 0 .512 1.07.108 1.828-.689a7.804 7.804 0 011.574-1.217 17.05 17.05 0 001.172-.693c.448-.32.761.045.484.563-.126.236-.164.677-.097 1.126.11.73.1.747-.811 1.446-.508.389-1.234.835-1.614.992-1.31.54-1.781 1.246-2.032 3.042-.101.727-.27 1.235-.453 1.373-.17.127-.814.218-1.545.218-.795 0-1.317-.08-1.426-.218zm10.07-.217c.12-.144.284-.262.365-.262.081 0 .103.118.047.262a.428.428 0 01-.364.261c-.215 0-.224-.049-.047-.261zm1.035-.19c-.32-.385-.001-.841.64-.915.278-.032.63-.17.783-.307.183-.164.463-.21.828-.138.325.065.651.027.796-.093.135-.113.44-.155.68-.095.251.063.485.025.557-.092.074-.12-.023-.238-.243-.296-.342-.09-.532-.718-.235-.78 1.405-.293 2.748-.348 3.385-.138.79.261.939.416 1.093 1.14.085.398.026.648-.226.959-.298.368-.49.422-1.533.431-.794.007-1.339.106-1.63.295-.406.265-.5.262-1.395-.048-.527-.183-.86-.335-.74-.338.345-.01.252-.305-.128-.405-.372-.097-1.367.342-1.835.81-.358.358-.507.36-.797.01zm.012-3.479c0-.246-.125-.49-.282-.55-.232-.088-.263-.275-.175-1.029.097-.819.07-.933-.24-1.031-.375-.12-.455-.61-.182-1.12.108-.202.104-.543-.012-.96-.112-.407-.117-.725-.014-.854.09-.113.2-.465.244-.782.066-.473-.01-.65-.42-.996l-.5-.422.441-.871c.51-1.008 1.423-2.106 1.75-2.106.46 0 1.123-2.297.781-2.709-.282-.34-.45-.204-.942.76-.229.448-.652 1.039-.94 1.312-.446.423-.61.478-1.106.37-.738-.16-3.287-1.448-3.287-1.66 0-.311-.867-.384-1.288-.107-.352.23-.463.236-.738.035-.307-.225-.308-.254-.021-.57.399-.442.336-1.85-.086-1.932-.157-.03-.371.106-.476.303-.162.301-.244.324-.527.148-.185-.116-.387-.159-.45-.097-.156.157-.535 2.23-.684 3.741-.124 1.269.14 4.075.47 4.977.253.688.222.723-.689.783-1.156.076-1.615-.058-1.615-.474 0-.229-.118-.345-.35-.345-.416 0-.408.284-.084-3.109.145-1.52.248-3.229.23-3.796-.03-.844.294-2.91.499-3.196.028-.04.316.071.64.245.56.303.642.303 1.769.02.649-.163 1.517-.528 1.93-.812.411-.283.906-.515 1.1-.515.192 0 .4-.082.462-.181.062-.1.254-.137.428-.082.334.106 1.573-.4 1.573-.641 0-.078.27-.142.597-.142.383 0 .784-.157 1.116-.436.285-.24.713-.437.951-.437s.533-.12.656-.268c.122-.147.347-.246.5-.22.154.025.472-.089.708-.254.503-.352.694-.22.864.596.133.638.132.638 1.833.37 1.091-.173 1.294-.572.29-.572-.392 0-.712-.048-.712-.106 0-.058.186-.327.414-.598.462-.549.748-1.692.489-1.951-.108-.108-.296-.1-.524.022-.196.105-.511.19-.7.19-.34 0-.34-.007-.01-.878.184-.483.289-1.058.233-1.279-.108-.431.28-.954 2.604-3.503 1.184-1.3 1.194-1.319.911-1.751-.498-.76-.974-.573-2.772 1.09-.908.839-2.249 2.06-2.98 2.715-.73.654-1.328 1.302-1.328 1.44 0 .136-.06.245-.131.24-.316-.017-1.29-.66-2.007-1.325-.676-.627-.79-.837-.862-1.582-.045-.472-.217-1.128-.381-1.457-.29-.579-.287-.608.058-.888.467-.378.451-.496-.066-.496-.479 0-.575-.31-.475-1.526.05-.594.128-.741.397-.741.389 0 .719-.713.64-1.385-.039-.341-.164-.46-.53-.502-.265-.03-.48-.125-.48-.211 0-.208.725-.603 1.002-.547.128.026.218-.135.218-.39 0-.238.079-.481.175-.54.521-.323-.285-.75-.847-.45-.253.135-.39.117-.55-.075-.364-.439-.072-.784.662-.784.972 0 1.52-.66 1.52-1.831 0-.835.02-.87.462-.842.325.022.49-.069.55-.303.048-.183.302-.415.565-.515.965-.367 1.525.796 1.555 3.23.016 1.264.095 1.57.84 3.258.452 1.025.777 1.983.72 2.128-.102.268-.84.567-1.64.665-.386.047-.436.136-.436.775 0 .466-.119.852-.336 1.094-.224.248-.278.431-.162.547.222.222 3.87-2.34 4.874-3.424 1.023-1.104 1.61-1.014 2.422.373.443.756.453.82.177 1.126-.324.359-.235 1.178.201 1.844.224.341.164.449-.828 1.485-1.104 1.154-3.121 3.738-3.121 3.998 0 .154.25.248 1.144.427.49.098.607.018 1.439-.99.497-.604 1.12-1.314 1.385-1.58.396-.4.435-.511.226-.643-.221-.139-.222-.22-.003-.628.306-.573.613-.709.956-.424.446.37.295.71-.92 2.075-1.824 2.05-1.75 1.915-1.261 2.284l.42.317-.34.628c-.259.483-.294.7-.148.932.287.459.79.451 1.873-.028.541-.24.984-.416.984-.394 0 .023-.392.342-.872.707-.638.487-.872.783-.872 1.103 0 .473-1.616 2.49-1.995 2.49-.542 0-2.387 1.106-2.63 1.576-.358.69-.324.9.133.834.247-.035.52-.303.741-.724.354-.677.343-.67 3.925-2.478l2.093-1.059c1.005-.508 1.538-.692 1.657-.571.223.227-.102.472-2.005 1.506-2.654 1.442-2.791 1.549-2.791 2.194 0 .8-.64 1.347-2.435 2.084-1.214.498-1.498.688-1.6 1.068-.151.568-1.714 2.826-2.738 3.959-1.015 1.121-.942 1.457.322 1.491 1.092.03 2.126-.172 3.436-.668.5-.19 1.049-.3 1.22-.247.372.115.63-.033.882-.506.102-.192.565-.545 1.029-.785.464-.24 1.065-.612 1.336-.828.272-.216.682-.44.913-.498.267-.067.556-.378.794-.856.207-.413.594-.913.862-1.11.267-.198.663-.675.88-1.061.216-.386.526-.743.688-.795.405-.128.907-.71.935-1.083.046-.586.668-1.635.939-1.582.145.028.541-.203.88-.514.34-.31.752-.608.917-.66.165-.052.428-.366.585-.697.251-.53.317-.879.422-2.22.036-.464.358-.364.565.175.246.643-.078 1.713-.696 2.3-.259.246-1.143 1.35-1.965 2.453-4.738 6.358-7.937 8.97-11.572 9.45-.768.102-1.487.21-1.599.24-.134.036-.185.404-.15 1.069l.182 3.5.129 2.485h-1.418c-1.4 0-1.417-.006-1.417-.442zm1.788-4.04c.072-.04.13-.374.13-.742 0-.626-.038-.675-.613-.783-.779-.146-.927-.048-.835.552.194 1.259.207 1.28.711 1.16.262-.063.535-.147.607-.187zm-.45-15.169c-.052-.051-.186-.036-.298.033-.152.094-.144.165.032.274.232.144.458-.115.266-.307zm.757-12.66c.626-1.027.34-1.972-.56-1.845-.333.047-.41.177-.453.765-.057.775.2 1.647.486 1.647.1 0 .337-.255.527-.567zm-2.618-3.786c0-.069-.275-.136-.61-.149-.585-.022-.843.21-.4.357.289.096 1.01-.052 1.01-.208zm-1.221 31.039c0-.096.078-.175.174-.175a.175.175 0 010 .349.175.175 0 01-.174-.174zm-8.033-13.873c-.716-.527-.984-1.4-.57-1.858.155-.172.207-.387.127-.518-.204-.33-.108-1.074.248-1.925.203-.485.327-1.272.35-2.227.037-1.464.044-1.486.818-2.471.59-.75.78-1.145.78-1.609 0-.584-.031-.617-.653-.669-.593-.049-.66-.105-.708-.605-.046-.476.102-.707 1.09-1.7.63-.632 1.144-1.21 1.144-1.284 0-.075.265-.539.59-1.031.324-.493.727-1.255.895-1.694.335-.878.683-1.28.86-.993.22.354.125 2.072-.171 3.127a5.696 5.696 0 00-.209 2.124c.052.574.042 1.043-.023 1.043s-.312-.373-.55-.828c-.236-.456-.541-.966-.677-1.134-.271-.337-.715-.411-.715-.12 0 .103-.275.446-.61.763-.636.6-.794 1.211-.356 1.38.33.126.966-.675.966-1.218 0-.666.23-.484.858.677.324.6.813 1.302 1.086 1.56.617.583.63 1.04.046 1.623-.399.4-.442.559-.371 1.36.069.777.275 1.739.583 2.727.054.172.342-.012.944-.604l.866-.853v.554c0 .356.175.76.491 1.127.557.65 1.308 2.58 1.157 2.974-.22.574-4.558 2.216-5.883 2.227-.405.004-.933.119-1.172.256-.57.326-.536.33-1.231-.18zm25.475-3.293c0-.136.11-.47.247-.742.135-.271.331-.712.435-.98.16-.412.24-.458.529-.304.262.14.333.348.311.905-.024.602-.117.776-.558 1.044-.633.387-.964.413-.964.077zm-4.274-.625c.06-.096.143-.174.185-.174.042 0 .077.078.077.174 0 .096-.083.174-.185.174-.101 0-.136-.078-.077-.174zm2.282-2.903c-.06-.157-.072-.324-.026-.37.162-.162.622.126.622.39 0 .357-.457.342-.596-.02zm-2.908-2.514c-.201-.125-.175-.224.145-.544.271-.272.446-.336.572-.21.397.397-.23 1.056-.717.754zm-1.97-1.83c-.14-.368.4-1.154.747-1.088.405.078.466.855.088 1.13-.414.303-.707.288-.834-.042zm-12.49-3.218c0-.096.117-.174.26-.174.145 0 .263.078.263.174 0 .096-.118.174-.262.174-.144 0-.262-.078-.262-.174z"
          ></path>
        </g>
      </g>
    </svg>